<?xml version="1.0" standalone="no"?>
<!DOCTYPE svg PUBLIC "-//W3C//DTD SVG 20010904//EN"
 "http://www.w3.org/TR/2001/REC-SVG-20010904/DTD/svg10.dtd">
<svg version="1.0" xmlns="http://www.w3.org/2000/svg"
 width="648.000000pt" height="160.000000pt" viewBox="0 0 648.000000 160.000000"
 preserveAspectRatio="xMidYMid meet">

<g transform="translate(0.000000,160.000000) scale(0.100000,-0.100000)"
fill="#000000" stroke="none">
<path d="M3367 1425 c-54 -19 -85 -51 -94 -99 -8 -37 -12 -41 -41 -44 -30 -3
-32 -6 -32 -43 0 -38 1 -39 35 -39 l35 0 0 -160 0 -160 90 0 90 0 0 160 0 160
65 0 65 0 0 40 0 39 -67 3 c-53 2 -68 7 -71 19 -6 34 25 49 104 49 l74 0 0 45
0 45 -107 0 c-65 -1 -123 -6 -146 -15z"/>
<path d="M3650 1390 l0 -50 95 0 95 0 0 50 0 50 -95 0 -95 0 0 -50z"/>
<path d="M4320 1354 c0 -78 -2 -85 -17 -79 -73 29 -190 22 -262 -15 -146 -74
-143 -305 4 -371 55 -25 156 -25 214 1 52 24 61 25 61 5 0 -12 17 -15 90 -15
l90 0 0 280 0 280 -90 0 -90 0 0 -86z m-2 -261 c3 -97 2 -102 -20 -114 -13 -7
-47 -13 -77 -13 -46 0 -57 3 -77 27 -19 22 -24 39 -24 80 1 94 38 128 135 124
l60 -2 3 -102z"/>
<path d="M1500 1419 c-132 -11 -234 -70 -282 -163 -25 -48 -30 -150 -9 -208
19 -55 91 -123 159 -149 101 -39 275 -38 425 2 l37 10 0 58 c0 32 -3 60 -6 64
-3 3 -34 -9 -68 -26 -55 -29 -69 -32 -151 -32 -112 0 -158 20 -192 85 -48 90
-16 195 71 239 76 39 162 35 261 -12 86 -41 88 -40 83 44 l-3 53 -45 14 c-60
18 -200 28 -280 21z"/>
<path d="M529 1389 c-11 -11 -27 -36 -35 -55 -17 -41 -19 -114 -2 -114 6 0 4
-7 -5 -18 -13 -15 -17 -39 -17 -117 0 -77 -3 -100 -16 -109 -8 -7 -33 -63 -54
-125 -21 -62 -41 -116 -44 -119 -3 -3 -6 -23 -6 -44 0 -47 14 -54 76 -39 52
13 59 11 49 -18 -6 -19 -14 -21 -106 -21 -119 0 -119 -1 -56 -113 48 -87 67
-97 67 -37 l0 40 235 0 235 0 0 -40 c0 -64 25 -50 70 40 22 44 40 86 40 95 0
12 -17 15 -100 15 -113 0 -115 1 -108 90 l3 44 35 -55 c27 -42 41 -54 60 -54
24 0 25 3 28 70 2 39 -2 101 -8 138 -13 72 -11 71 -67 50 -7 -3 -13 1 -13 8 0
7 -8 31 -19 53 -19 41 -41 140 -41 183 0 14 6 23 16 23 14 0 14 2 0 22 -9 12
-16 35 -16 50 0 56 -22 127 -47 152 -34 35 -122 37 -154 5z m140 -110 c9 -26
8 -29 -12 -30 -21 -1 -21 -1 -1 -7 31 -10 74 -48 74 -65 0 -9 -6 -20 -14 -24
-7 -4 -21 -24 -31 -43 -10 -19 -25 -40 -33 -46 -15 -11 -13 -24 10 -57 17 -24
-3 -37 -58 -37 -34 0 -43 4 -47 21 -3 12 0 30 6 41 10 16 8 22 -9 36 -12 9
-31 36 -42 60 -20 41 -20 45 -5 78 12 25 24 34 42 35 24 2 24 2 4 6 -42 8 -23
43 42 76 27 14 32 14 47 0 9 -8 21 -28 27 -44z m-52 -551 c-2 -24 -4 -7 -4 37
0 44 2 63 4 43 2 -21 2 -57 0 -80z m-60 50 c11 -13 23 -42 26 -65 4 -36 2 -43
-12 -43 -10 0 -26 9 -35 19 -10 11 -24 17 -31 15 -14 -6 -31 48 -20 66 3 5 1
10 -4 10 -6 0 -11 5 -11 10 0 20 66 11 87 -12z m73 -143 c0 -8 -9 -15 -20 -15
-11 0 -20 7 -20 15 0 8 9 15 20 15 11 0 20 -7 20 -15z"/>
<path d="M536 1217 c-16 -12 -16 -13 3 -14 22 -2 37 12 23 21 -5 3 -17 0 -26
-7z"/>
<path d="M645 1220 c-7 -11 -8 -11 23 -14 27 -3 28 0 3 14 -13 7 -22 7 -26 0z"/>
<path d="M5948 1343 c-3 -57 -3 -58 -35 -61 -31 -3 -33 -6 -33 -42 0 -36 2
-39 33 -42 l32 -3 5 -126 c5 -136 10 -148 64 -176 35 -18 173 -29 240 -19 l46
7 0 43 0 44 -63 -5 c-103 -9 -107 -3 -107 127 l0 110 85 0 85 0 0 40 0 40 -85
0 -84 0 -3 58 -3 57 -87 3 -87 3 -3 -58z"/>
<path d="M2092 1289 c-64 -11 -118 -37 -154 -76 -35 -37 -48 -73 -48 -135 0
-134 107 -210 295 -210 144 0 247 47 281 129 17 39 18 121 3 160 -25 67 -99
116 -200 133 -73 11 -103 11 -177 -1z m178 -115 c22 -21 25 -33 25 -95 0 -65
-2 -73 -28 -94 -61 -53 -155 -37 -183 32 -30 71 0 168 57 185 41 12 102 -1
129 -28z"/>
<path d="M2883 1290 c-22 -5 -60 -18 -82 -30 -41 -20 -41 -20 -41 0 0 19 -6
20 -90 20 l-90 0 0 -200 0 -200 90 0 90 0 0 143 0 144 25 11 c36 16 107 15
131 -2 17 -13 19 -29 22 -155 l4 -141 89 0 89 0 0 151 c0 115 -4 159 -15 183
-29 60 -129 94 -222 76z"/>
<path d="M4810 1291 c-90 -17 -165 -64 -196 -123 -20 -38 -20 -138 0 -176 22
-42 67 -77 128 -99 65 -22 307 -26 376 -5 l42 13 0 49 c0 57 -1 58 -80 30 -60
-21 -190 -27 -234 -10 -32 12 -66 45 -66 65 0 13 28 15 196 15 l197 0 -6 60
c-7 80 -35 123 -100 154 -58 29 -179 41 -257 27z m122 -81 c39 -11 64 -41 54
-66 -4 -11 -28 -14 -106 -14 -89 0 -100 2 -100 18 0 26 12 40 50 56 42 18 54
19 102 6z"/>
<path d="M5563 1290 c-22 -5 -60 -18 -82 -30 -41 -20 -41 -20 -41 0 0 19 -6
20 -90 20 l-90 0 0 -200 0 -200 90 0 90 0 0 143 0 144 25 11 c42 19 112 15
135 -8 18 -18 20 -33 20 -155 l0 -135 90 0 90 0 0 158 c0 136 -3 161 -19 188
-32 53 -129 81 -218 64z"/>
<path d="M3660 1080 l0 -200 90 0 90 0 0 200 0 200 -90 0 -90 0 0 -200z"/>
<path d="M1234 786 c-70 -31 -94 -107 -53 -172 11 -19 54 -61 94 -94 88 -72
99 -94 61 -127 -32 -27 -92 -31 -155 -8 l-42 15 3 -42 c4 -51 15 -56 136 -57
100 -1 154 21 179 73 25 54 12 96 -50 151 -142 128 -159 154 -122 185 21 18
94 24 138 12 l37 -10 0 38 c0 25 -5 40 -16 44 -29 11 -179 5 -210 -8z"/>
<path d="M3524 786 c-70 -31 -94 -107 -54 -171 11 -18 52 -59 91 -91 77 -63
93 -85 84 -115 -13 -39 -98 -51 -174 -24 l-42 15 3 -42 c4 -51 15 -56 136 -57
128 -2 192 41 192 129 0 31 -10 45 -101 131 -88 84 -101 100 -96 121 11 43 80
60 155 39 l32 -10 0 39 c0 25 -5 40 -16 44 -29 11 -179 5 -210 -8z"/>
<path d="M5216 603 c-3 -109 -9 -222 -13 -251 l-6 -53 54 3 54 3 6 185 c4 102
8 212 10 245 l4 60 -51 3 -51 3 -7 -198z"/>
<path d="M1641 670 c-48 -10 -61 -22 -61 -57 0 -24 10 -29 26 -14 11 12 109
27 147 23 35 -4 57 -43 37 -67 -7 -8 -31 -20 -54 -25 -119 -31 -151 -44 -177
-70 -40 -40 -40 -91 0 -131 27 -27 35 -29 105 -29 59 0 76 3 76 14 0 8 2 20 5
28 4 10 -5 12 -40 10 -52 -5 -75 9 -75 44 0 27 27 48 91 68 24 7 52 17 63 21
17 8 18 3 11 -89 l-7 -96 50 0 50 0 7 113 c10 172 5 216 -27 240 -31 23 -153
32 -227 17z"/>
<path d="M3918 670 c-26 -4 -51 -11 -56 -14 -5 -3 -12 -101 -16 -218 -3 -117
-9 -232 -13 -255 l-6 -43 57 0 56 0 0 105 c0 58 2 105 5 105 2 0 21 -12 42
-26 34 -23 46 -25 105 -22 58 3 72 8 99 33 42 40 59 83 59 153 0 73 -31 139
-79 166 -39 23 -171 31 -253 16z m196 -94 c31 -29 36 -39 36 -80 0 -62 -23
-104 -66 -122 -44 -18 -77 -10 -109 28 -21 25 -25 40 -25 99 0 86 17 109 84
109 37 0 51 -6 80 -34z"/>
<path d="M4437 666 c-21 -8 -48 -22 -59 -33 -64 -58 -84 -185 -39 -256 36 -59
83 -77 195 -77 104 0 126 10 126 57 0 20 -4 24 -17 18 -10 -4 -45 -9 -79 -12
-94 -8 -144 25 -144 96 l0 31 140 0 140 0 0 33 c-1 51 -34 113 -71 133 -45 23
-144 28 -192 10z m142 -72 c12 -15 21 -35 21 -45 0 -17 -9 -19 -90 -19 -49 0
-90 4 -90 9 0 10 39 62 55 73 5 4 27 8 47 8 28 0 42 -6 57 -26z"/>
<path d="M4885 675 c-5 -2 -27 -6 -47 -9 -31 -6 -38 -12 -43 -37 -8 -37 -1
-47 20 -29 9 8 51 15 95 18 78 4 80 4 91 -21 16 -35 0 -53 -55 -67 -119 -31
-151 -44 -177 -70 -40 -40 -40 -91 0 -131 27 -27 35 -29 105 -29 59 0 76 3 76
14 0 8 2 20 5 28 4 10 -5 12 -40 10 -52 -5 -75 9 -75 44 0 27 27 48 91 68 24
7 52 17 63 21 17 8 18 3 11 -89 l-7 -96 50 0 49 0 7 88 c17 231 11 261 -63
282 -34 9 -134 13 -156 5z"/>
<path d="M5737 666 c-21 -8 -48 -22 -59 -33 -59 -52 -78 -191 -35 -253 42 -63
69 -75 173 -78 127 -5 141 -1 146 43 4 35 4 36 -26 28 -17 -4 -59 -8 -94 -8
-59 0 -66 2 -93 33 -18 20 -29 43 -29 62 l0 30 140 0 140 0 0 38 c-1 20 -9 53
-18 72 -33 69 -149 100 -245 66z m143 -68 c11 -12 20 -32 20 -45 0 -22 -3 -23
-85 -23 -97 0 -106 10 -56 61 37 37 90 40 121 7z"/>
<path d="M6240 673 c-8 -3 -25 -15 -37 -26 l-23 -20 0 21 c0 20 -5 22 -49 22
l-49 0 -6 -137 c-4 -76 -9 -159 -12 -185 l-6 -48 56 0 56 0 0 89 c0 114 7 145
38 176 19 19 35 25 70 25 l45 0 -7 31 c-3 17 -6 38 -6 45 0 14 -40 18 -70 7z"/>
<path d="M1965 653 c3 -10 34 -93 67 -185 l61 -168 56 0 56 0 84 181 c75 160
86 179 98 163 7 -10 13 -22 13 -27 0 -5 25 -78 57 -163 l56 -154 56 0 56 0 77
168 c42 92 80 175 84 185 6 16 1 18 -46 15 l-53 -3 -51 -127 c-28 -69 -54
-129 -58 -133 -4 -4 -26 54 -50 129 l-43 137 -109 -3 -109 -3 -51 -127 c-28
-69 -54 -129 -58 -133 -4 -4 -26 54 -49 129 l-43 136 -54 0 c-48 0 -53 -2 -47
-17z"/>
<path d="M2805 653 c63 -161 126 -357 121 -376 -3 -13 -17 -36 -31 -51 -24
-26 -31 -28 -77 -24 l-50 5 6 -30 c4 -17 12 -35 19 -39 22 -14 101 -8 144 12
40 18 46 27 104 147 66 137 169 362 169 369 0 2 -22 4 -49 4 -55 0 -41 21
-126 -188 -21 -51 -41 -89 -45 -85 -3 4 -24 68 -45 141 l-39 132 -54 0 c-48 0
-53 -2 -47 -17z"/>
<path d="M5388 587 l-65 -83 71 -102 71 -101 58 0 58 -1 -76 100 c-46 61 -73
105 -69 113 4 6 37 45 72 85 l64 72 -59 0 -59 0 -66 -83z"/>
</g>
</svg>
